<svg width="730" height="504" viewBox="0 0 730 504" fill="none" xmlns="http://www.w3.org/2000/svg">
<path d="M7.19724 501.7C4.69724 500.9 2.89724 499.2 1.49724 496.6C-2.00276 490.1 -0.302753 486.8 16.7972 468.2C51.2972 430.4 80.9972 397.1 80.9972 396.1C80.9972 395.8 63.6972 395.5 42.5972 395.5C9.09724 395.5 3.89724 395.3 2.49724 393.8C0.797244 392.1 0.0972381 379.7 1.39724 376.1C1.89724 374.6 7.79724 374.4 57.1972 374.4H112.397L115.097 377.7C118.397 381.6 118.697 386.3 115.797 390.8C113.597 394.4 111.297 397 75.0972 436.8C45.4972 469.3 36.5972 479.3 36.5972 480.4C36.5972 480.7 54.3972 481 76.1972 481C121.597 481 117.297 479.8 117.297 491.9C117.297 504 121.297 503.2 61.4972 503.1C25.0972 503.1 9.69724 502.8 7.09724 501.8L7.19724 501.7Z" fill="#4B1C7D"/>
<path d="M159.997 501.6C149.697 498.9 141.897 492.4 137.497 483C135.497 478.7 135.297 476.4 135.297 454.5C135.297 431.2 135.297 430.7 137.997 425C141.197 418.2 145.897 413.2 151.997 410C155.997 407.9 158.297 407.7 187.397 407.3C217.997 406.9 218.597 406.9 224.097 409.2C231.197 412.3 238.297 420.1 240.797 427.3C242.097 431.1 242.397 434.8 242.097 440.2C241.297 452.3 235.897 460.9 225.597 465.8C219.597 468.8 219.497 468.8 194.797 469.1C172.097 469.4 169.997 469.3 168.697 467.6C167.197 465.6 166.797 452.7 168.197 450.6C168.697 449.8 175.597 449.2 191.897 449L214.797 448.7L217.597 445.7C219.997 443.3 220.597 441.9 220.597 437.5C220.597 433 220.197 431.8 217.597 429.6C214.597 427.1 214.497 427.1 188.797 427.1H162.897L159.797 430.2L156.697 433.3V454.1C156.697 466.2 157.097 475.6 157.797 476.8C159.997 481 162.897 481.5 186.297 482.1L208.997 482.6L209.297 491.4C209.497 497 209.197 500.8 208.397 501.7C206.797 503.7 167.197 503.7 159.897 501.7L159.997 501.6Z" fill="#4B1C7D"/>
<path d="M261.497 501.8C260.597 500.9 260.197 489.5 260.197 457V413.4L263.297 410L266.397 406.5L297.397 406.2C338.797 405.8 345.897 407.3 357.197 419.2C367.397 430.1 368.897 436.6 368.897 474.3C368.897 504.5 369.397 503.1 357.897 503.1C345.497 503.1 346.197 505 346.197 471.2C346.197 439.5 346.097 438.7 339.297 433C334.097 428.7 329.597 428 305.297 428.4L282.797 428.7L282.497 464.6C282.297 496.8 282.097 500.6 280.497 501.8C278.197 503.5 263.097 503.5 261.397 501.8H261.497Z" fill="#4B1C7D"/>
<path d="M398.997 501.6C397.297 500.9 394.897 499.2 393.697 497.8C391.697 495.6 391.597 494 391.597 451V406.6H402.097H412.597L413.097 443L413.597 479.4L417.197 479.7C422.797 480.2 435.397 475.1 443.997 468.8C457.397 459 469.697 441.5 479.097 419.2C481.797 412.9 484.597 407.3 485.197 406.8C485.797 406.4 490.897 406.2 496.397 406.3L506.397 406.6L506.097 409.6C505.597 414.2 496.097 435.7 489.597 446.5C479.897 463.1 469.797 474.9 457.197 484.2C439.097 497.7 409.697 506.6 398.797 501.7L398.997 501.6Z" fill="#4B1C7D"/>
<path d="M541.197 501.6C534.097 499.9 526.997 495.6 522.997 490.7C517.197 483.7 516.597 479.8 516.597 454C516.597 426.2 517.297 423 525.397 415.3C533.597 407.4 535.397 407.1 570.997 407.1H601.697L607.197 409.8C617.697 415.1 623.197 424.8 623.197 438.2C623.197 451 617.497 460.5 606.497 465.8C600.497 468.8 600.397 468.8 576.097 469.1C555.597 469.4 551.597 469.2 550.497 467.9C549.697 466.8 549.297 463.5 549.597 458L549.897 449.8L572.897 449.3L595.997 448.8L599.097 445.3C603.397 440.6 603.397 434.5 599.097 430.2L595.997 427.1H569.897H543.797L540.697 430.2L537.597 433.3V453.6C537.597 474.7 538.297 478.6 542.597 480.6C543.697 481.1 554.697 481.8 567.197 482.1L589.897 482.6L590.197 491.6C590.397 499.1 590.197 500.8 588.697 501.8C586.197 503.6 548.797 503.5 541.197 501.7V501.6Z" fill="#4B1C7D"/>
<path d="M666.997 501.3C665.497 499.9 665.297 495 665.297 463.9V428.1H651.797C634.597 428.1 634.497 428 634.897 415.3L635.197 406.4L650.297 406.1L665.297 405.8V391.4C665.297 383.5 665.697 376.3 666.097 375.6C666.697 374.7 669.797 374.3 677.497 374.5L687.897 374.8L688.197 390.4L688.497 405.9H707.697C721.297 405.9 727.397 406.3 728.297 407.2C728.997 407.9 729.597 411.7 729.597 416.6C729.597 428.2 729.697 428.1 706.697 428.1H688.497V463.9C688.497 495 688.297 500 686.797 501.3C685.597 502.6 682.997 503 676.897 503C670.797 503 668.097 502.6 666.997 501.3Z" fill="#4B1C7D"/>
<path d="M345.197 353.2C298.597 347.6 258.397 322.5 231.797 282.4C213.697 255.1 205.597 227.1 206.797 195.1C208.397 151 224.497 112.9 254.497 82.6C264.597 72.3 266.697 70.7 269.697 70.7H273.097L267.197 77.3C241.497 106.1 227.597 140.6 225.897 180.4C224.697 209.2 230.797 238.8 241.997 259.1C251.197 275.6 269.097 295.1 280.697 301.1L286.497 304.2L291.197 299.9C302.697 289.2 315.797 286.8 334.997 291.6C354.497 296.5 359.597 297 391.397 297H421.697V300.2C421.697 304.9 416.397 310.7 410.297 312.8C400.897 315.9 386.497 316.9 362.897 316.2C347.797 315.8 340.397 315.9 340.397 316.6C340.397 319.4 354.597 327.7 366.297 331.6C372.497 333.7 375.697 334 388.297 334C401.197 334 404.397 333.6 413.597 331C430.797 326.3 444.997 318.7 461.697 305.4C472.097 297.1 475.197 295.5 480.697 295.5C486.897 295.5 488.897 297.5 486.797 301.5C484.897 305 471.897 316.9 461.097 325C451.497 332.3 431.297 342.6 418.997 346.6C399.897 352.8 365.897 355.9 345.097 353.4L345.197 353.2Z" fill="#4B1C7D"/>
<path d="M425.897 316.1C425.897 315.9 427.397 312.9 429.097 309.6C431.397 305.1 432.297 301.9 432.297 297.9V292.3L443.097 285.1C472.697 265.2 491.897 236 498.397 200.8C500.597 188.4 499.997 164.4 496.897 152.6L494.897 144.5L498.397 141.3C501.897 138.2 501.997 138 501.997 129.6V121.1L504.797 121.4C507.397 121.7 507.997 122.7 511.697 133.1C518.297 152.2 520.297 163.4 520.297 183.4C520.297 208.5 516.697 224 505.497 246.2C492.397 272 474.097 292 450.097 306.1C440.497 311.8 425.797 317.8 425.897 316.1Z" fill="#4B1C7D"/>
<path d="M411.097 287.9C406.197 283 407.097 277.2 413.697 270.5C420.597 263.4 421.397 255.7 415.697 250.5C404.997 240.7 383.597 254.8 383.597 271.8C383.597 277.6 382.097 278.3 380.597 273.3C377.597 263.5 364.697 248.2 352.797 240.3C334.197 228.2 334.597 228.5 333.197 224.3C331.897 220.2 331.897 220 336.997 211.6C339.797 206.9 343.097 200.4 344.197 197.3C346.897 189.3 346.697 174.6 343.797 166.5C342.597 163.2 341.997 160.3 342.297 160C343.897 158.3 348.197 159.8 354.597 164.2C363.097 170.1 367.597 172 372.497 172C379.797 172 384.797 167.6 386.197 160.1C387.497 153.2 383.397 146.6 370.497 134.7C362.697 127.4 358.897 124.6 358.197 125.3C356.397 127.1 359.397 131.6 368.697 141.6C377.597 151.2 380.097 156.3 378.297 160.9C377.197 163.6 374.297 165.6 371.197 165.6C370.097 165.6 364.997 163.4 359.597 160.7C353.197 157.4 347.797 155.6 343.797 155.1C336.497 154.3 333.497 152.5 331.497 148.1C330.097 145.1 330.097 144.1 332.297 136.5C337.497 118 345.197 107.3 360.097 97.3C369.197 91.3 373.897 90.7 383.597 94.2C392.797 97.6 398.797 97.7 408.297 94.3C412.397 92.8 417.997 91.3 420.697 91C424.997 90.4 426.097 90.7 428.197 92.6C431.897 96.1 436.097 106.3 436.797 113.4C438.097 125.4 433.397 133.5 422.097 139C416.797 141.5 414.997 143.3 412.497 148.4C407.397 158.2 409.797 167.8 422.097 189.5C435.897 213.9 438.897 223.7 437.897 243.4C437.297 257.2 434.897 266.1 428.997 277.5C425.197 284.8 421.597 287.9 415.797 289.3C413.697 289.8 412.297 289.4 410.697 287.8L411.097 287.9Z" fill="#4B1C7D"/>
<path d="M229.097 212.4C228.697 210.9 228.897 209.2 229.597 208.5C230.397 207.7 230.797 208.4 230.797 211.2C230.797 215.7 230.097 216.3 229.097 212.4Z" fill="#4B1C7D"/>
<path d="M236.497 192.5C234.997 187.3 236.797 165.8 239.597 154.4C244.297 135.1 252.597 115.8 262.697 100.2C268.797 90.8 288.497 70.8 297.597 64.9C308.597 57.7 322.797 50.7 334.197 47L345.197 43.4L341.697 41.5C339.697 40.3 335.997 38.2 333.497 36.5C326.297 32.2 329.497 29.7 337.797 33.2C347.697 37.3 357.897 39.1 377.397 40C410.097 41.5 432.797 48.1 453.297 62.1C461.797 67.9 463.997 70.7 464.697 76.3C465.297 82.2 464.397 83.2 457.197 83.2C452.797 83.2 451.397 82.6 445.397 78C433.497 68.8 420.997 65.6 401.797 66.6C382.497 67.7 361.397 73.1 345.597 81.2C334.397 86.8 317.097 99.2 307.097 108.7C301.597 114 296.897 118.1 296.697 117.8C294.897 116.1 316.097 93.6 328.297 84.3C340.197 75.2 355.597 67.3 373.097 61.6C388.197 56.5 388.397 54.7 373.897 54.7C355.997 54.7 333.797 60 317.597 68.2C291.297 81.5 264.697 109.2 252.397 136.2C245.597 151 239.597 172.7 238.197 187.9C237.597 194.3 237.297 195.1 236.497 192.4V192.5Z" fill="#4B1C7D"/>
<path d="M307.397 112.8C307.697 111.5 308.697 110.3 309.497 110C311.997 109.1 311.997 110.3 309.397 112.7L306.797 115.1L307.397 112.8Z" fill="#4B1C7D"/>
<path d="M277.597 290.1C269.997 285.5 267.297 277.9 267.297 262C267.297 248.4 268.997 241.1 275.297 227.2C279.597 217.8 281.197 210.2 279.897 204.9C279.497 203.4 276.497 199.4 273.397 196C263.697 185.9 263.497 178 272.697 172C275.497 170.3 280.197 167.1 282.997 165C286.897 162.3 290.097 161 295.097 160.3C300.897 159.4 302.397 158.6 304.697 155.8C307.197 152.8 307.797 152.6 309.197 153.8C310.797 155.1 311.297 154.9 313.797 152.5C315.497 150.9 317.397 149.7 317.997 149.7C319.597 149.7 322.897 157.1 325.897 167.6C327.897 174.7 328.097 177.5 327.797 192.9C326.997 226.7 326.997 225.8 329.597 229.9C331.097 232.4 335.897 236.3 343.397 241.3C358.797 251.4 368.097 261.2 374.497 274.3C377.097 279.7 379.497 285.3 379.697 286.7C379.897 289.1 379.597 289.3 374.597 289.7C367.797 290.1 354.297 288.3 340.297 285.2C325.997 281.9 316.797 281 313.197 282.4C311.497 282.9 308.097 284.1 305.497 284.8C302.897 285.5 297.897 287.5 294.397 289.1C286.997 292.6 281.997 292.8 277.397 290L277.597 290.1Z" fill="#57B9C2"/>
<path d="M392.397 289.2C389.397 288.7 388.497 285.4 388.497 276.6C388.497 268.9 391.597 261.9 396.897 257.2C399.997 254.6 401.397 254 405.797 254C409.897 254 411.297 254.4 412.097 256C413.997 259.7 413.297 262.3 408.397 267.6C403.397 273.3 402.297 276.9 402.797 284.6L403.097 289.3L398.897 289.4C396.597 289.5 393.597 289.4 392.397 289.1V289.2Z" fill="#57B9C2"/>
<path d="M241.397 235.6C238.197 231.6 238.697 225.3 241.997 224.8C245.297 224.4 247.797 228.6 247.397 233.8C246.997 238.9 244.597 239.6 241.397 235.6Z" fill="#57B9C2"/>
<path d="M229.097 212.5C228.397 209.4 230.197 206.7 232.997 206.7C235.197 206.7 235.597 209.8 233.897 213.1C232.297 215.9 229.897 215.6 228.997 212.5H229.097Z" fill="#57B9C2"/>
<path d="M245.197 198.4C241.597 194.7 240.997 186.6 244.297 186.6C248.197 186.6 252.697 195 251.297 199.5C250.497 202.2 248.597 201.8 245.297 198.4H245.197Z" fill="#57B9C2"/>
<path d="M472.497 136.4C470.397 135 470.197 133.9 470.197 126.6C470.197 116.3 468.997 114.9 460.297 114.9C453.997 114.9 448.797 112.9 447.597 110.2C446.397 107 446.897 92.2 448.297 90.5C449.097 89.3 452.097 88.7 457.897 88.3C468.597 87.6 469.497 86.7 469.897 76.5C470.197 71.2 470.797 68.3 471.897 67.3C472.797 66.6 477.597 65.8 483.197 65.6C495.397 65.1 496.497 65.8 496.497 75.2C496.497 78.8 497.097 82.9 497.897 84.4C499.097 86.7 500.097 87.1 507.597 87.8C518.897 88.9 519.697 89.9 519.697 102.4C519.697 114 518.997 114.8 507.497 115.7C501.797 116.1 498.697 116.9 497.897 118C497.097 119.1 496.497 122.9 496.497 127.9C496.497 134.9 496.197 136.2 494.497 137.2C491.097 138.9 475.197 138.6 472.497 136.6V136.4Z" fill="#57B9C2"/>
<path d="M313.397 38.5C311.597 37.7 309.797 36.3 309.497 35.3C308.097 31.7 316.897 30.1 321.197 33.2C323.997 35.2 324.197 37.4 321.497 38.9C318.897 40.3 317.397 40.2 313.397 38.5Z" fill="#57B9C2"/>
<path d="M333.797 26.8C330.497 23.5 331.997 12.6 335.797 12.6C339.297 12.6 340.497 22.5 337.497 26.3C335.697 28.5 335.497 28.5 333.797 26.8Z" fill="#57B9C2"/>
<path d="M301.597 22.5C297.797 19.9 298.597 17.9 303.497 17.9C307.597 17.9 311.897 20.6 311.897 23.2C311.897 24.9 304.197 24.5 301.597 22.6V22.5Z" fill="#57B9C2"/>
<path d="M307.997 10.2C304.797 6.9 304.697 0 307.697 0C311.897 0 314.997 8.79998 311.697 11.5C310.497 12.3 309.697 12 307.997 10.2Z" fill="#57B9C2"/>
<path d="M328.797 109.1C326.897 106.8 328.097 98.2 330.697 95.6C333.697 92.6 336.197 93.9 336.197 98.3C336.197 106.1 331.797 112.5 328.797 109.1Z" fill="#C3D1EA"/>
<path d="M306.497 88.4C302.397 86.1 305.697 82.2 311.697 82.2C313.397 82.2 315.797 82.9 317.097 83.9C319.397 85.5 319.397 85.7 317.697 87.6C315.697 89.8 309.597 90.2 306.497 88.4Z" fill="#C3D1EA"/>
<path d="M278.697 143.4C277.597 141.7 281.697 134.4 283.797 134.1C286.397 133.6 286.997 136.2 285.197 140.6C283.597 144.4 280.197 145.8 278.797 143.3L278.697 143.4Z" fill="#A1BDD8"/>
<path d="M308.397 122.1C305.297 117.9 306.997 109.7 310.797 109.7C313.997 109.7 316.097 117.4 313.997 121.1C311.997 124.7 310.397 125 308.397 122.2V122.1Z" fill="#A1BDD8"/>
<path d="M289.797 107.5C285.997 106.6 285.897 103.7 289.697 101.8C293.597 99.7 297.197 99.7 299.797 101.6C301.797 103.1 301.797 103.2 299.997 105.2C297.897 107.5 293.797 108.5 289.797 107.5Z" fill="#B5CAE4"/>
</svg>
