<svg width="322" height="363" viewBox="0 0 322 363" fill="none" xmlns="http://www.w3.org/2000/svg">
<g filter="url(#filter0_d_1_107)">
<path d="M142.516 353.2C95.9159 347.6 55.7159 322.5 29.1159 282.4C11.0159 255.1 2.91594 227.1 4.11594 195.1C5.71594 151 21.8159 112.9 51.8159 82.5999C61.9159 72.2999 64.0159 70.7 67.0159 70.7H70.4159L64.5159 77.3C38.8159 106.1 24.9159 140.6 23.2159 180.4C22.0159 209.2 28.1159 238.8 39.3159 259.1C48.5159 275.6 66.4159 295.1 78.0159 301.1L83.8159 304.2L88.5159 299.9C100.016 289.2 113.116 286.8 132.316 291.6C151.816 296.5 156.916 297 188.716 297H219.016V300.2C219.016 304.9 213.716 310.7 207.616 312.8C198.216 315.9 183.816 316.9 160.216 316.2C145.116 315.8 137.716 315.9 137.716 316.6C137.716 319.4 151.916 327.7 163.616 331.6C169.816 333.7 173.016 334 185.616 334C198.516 334 201.716 333.6 210.916 331C228.116 326.3 242.316 318.7 259.016 305.4C269.416 297.1 272.516 295.5 278.016 295.5C284.216 295.5 286.216 297.5 284.116 301.5C282.216 305 269.216 316.9 258.416 325C248.816 332.3 228.616 342.6 216.316 346.6C197.216 352.8 163.216 355.9 142.416 353.4L142.516 353.2Z" fill="#51056B"/>
<path d="M223.216 316.1C223.216 315.9 224.716 312.9 226.416 309.6C228.716 305.1 229.616 301.9 229.616 297.9V292.3L240.416 285.1C270.016 265.2 289.216 236 295.716 200.8C297.916 188.4 297.316 164.4 294.216 152.6L292.216 144.5L295.716 141.3C299.216 138.2 299.316 138 299.316 129.6V121.1L302.116 121.4C304.716 121.7 305.316 122.7 309.016 133.1C315.616 152.2 317.616 163.4 317.616 183.4C317.616 208.5 314.016 224 302.816 246.2C289.716 272 271.416 292 247.416 306.1C237.816 311.8 223.116 317.8 223.216 316.1Z" fill="#51056B"/>
<path d="M208.416 287.9C203.516 283 204.416 277.2 211.016 270.5C217.916 263.4 218.716 255.7 213.016 250.5C202.316 240.7 180.916 254.8 180.916 271.8C180.916 277.6 179.416 278.3 177.916 273.3C174.916 263.5 162.016 248.2 150.116 240.3C131.516 228.2 131.916 228.5 130.516 224.3C129.216 220.2 129.216 220 134.316 211.6C137.116 206.9 140.416 200.4 141.516 197.3C144.216 189.3 144.016 174.6 141.116 166.5C139.916 163.2 139.316 160.3 139.616 160C141.216 158.3 145.516 159.8 151.916 164.2C160.416 170.1 164.916 172 169.816 172C177.116 172 182.116 167.6 183.516 160.1C184.816 153.2 180.716 146.6 167.816 134.7C160.016 127.4 156.216 124.6 155.516 125.3C153.716 127.1 156.716 131.6 166.016 141.6C174.916 151.2 177.416 156.3 175.616 160.9C174.516 163.6 171.616 165.6 168.516 165.6C167.416 165.6 162.316 163.4 156.916 160.7C150.516 157.4 145.116 155.6 141.116 155.1C133.816 154.3 130.816 152.5 128.816 148.1C127.416 145.1 127.416 144.1 129.616 136.5C134.816 118 142.516 107.3 157.416 97.3C166.516 91.3 171.216 90.7 180.916 94.2C190.116 97.6 196.116 97.7 205.616 94.3C209.716 92.8 215.316 91.3 218.016 91C222.316 90.4 223.416 90.7 225.516 92.6C229.216 96.1 233.416 106.3 234.116 113.4C235.416 125.4 230.716 133.5 219.416 139C214.116 141.5 212.316 143.3 209.816 148.4C204.716 158.2 207.116 167.8 219.416 189.5C233.216 213.9 236.216 223.7 235.216 243.4C234.616 257.2 232.216 266.1 226.316 277.5C222.516 284.8 218.916 287.9 213.116 289.3C211.016 289.8 209.616 289.4 208.016 287.8L208.416 287.9Z" fill="#51056B"/>
<path d="M26.4159 212.4C26.0159 210.9 26.2159 209.2 26.9159 208.5C27.7159 207.7 28.1159 208.4 28.1159 211.2C28.1159 215.7 27.4159 216.3 26.4159 212.4Z" fill="#51056B"/>
<path d="M33.8159 192.5C32.3159 187.3 34.1159 165.8 36.9159 154.4C41.6159 135.1 49.9159 115.8 60.0159 100.2C66.1159 90.8001 85.8159 70.8001 94.9159 64.9001C105.916 57.7001 120.116 50.7 131.516 47L142.516 43.4001L139.016 41.5C137.016 40.3 133.316 38.2 130.816 36.5C123.616 32.2 126.816 29.7001 135.116 33.2001C145.016 37.3001 155.216 39.1 174.716 40C207.416 41.5 230.116 48.1 250.616 62.1C259.116 67.9 261.316 70.7001 262.016 76.3001C262.616 82.2001 261.716 83.2001 254.516 83.2001C250.116 83.2001 248.716 82.6 242.716 78C230.816 68.8 218.316 65.6 199.116 66.6C179.816 67.7 158.716 73.1 142.916 81.2001C131.716 86.8001 114.416 99.2001 104.416 108.7C98.9159 114 94.2159 118.1 94.0159 117.8C92.2159 116.1 113.416 93.6001 125.616 84.3001C137.516 75.2001 152.916 67.3 170.416 61.6C185.516 56.5 185.716 54.7001 171.216 54.7001C153.316 54.7001 131.116 60.0001 114.916 68.2001C88.6159 81.5001 62.0159 109.2 49.7159 136.2C42.9159 151 36.9159 172.7 35.5159 187.9C34.9159 194.3 34.6159 195.1 33.8159 192.4V192.5Z" fill="#51056B"/>
<path d="M104.716 112.8C105.016 111.5 106.016 110.3 106.816 110C109.316 109.1 109.316 110.3 106.716 112.7L104.116 115.1L104.716 112.8Z" fill="#51056B"/>
<path d="M74.9159 290.1C67.3159 285.5 64.6159 277.9 64.6159 262C64.6159 248.4 66.3159 241.1 72.6159 227.2C76.9159 217.8 78.5159 210.2 77.2159 204.9C76.8159 203.4 73.8159 199.4 70.7159 196C61.0159 185.9 60.8159 178 70.0159 172C72.8159 170.3 77.5159 167.1 80.3159 165C84.2159 162.3 87.4159 161 92.4159 160.3C98.2159 159.4 99.7159 158.6 102.016 155.8C104.516 152.8 105.116 152.6 106.516 153.8C108.116 155.1 108.616 154.9 111.116 152.5C112.816 150.9 114.716 149.7 115.316 149.7C116.916 149.7 120.216 157.1 123.216 167.6C125.216 174.7 125.416 177.5 125.116 192.9C124.316 226.7 124.316 225.8 126.916 229.9C128.416 232.4 133.216 236.3 140.716 241.3C156.116 251.4 165.416 261.2 171.816 274.3C174.416 279.7 176.816 285.3 177.016 286.7C177.216 289.1 176.916 289.3 171.916 289.7C165.116 290.1 151.616 288.3 137.616 285.2C123.316 281.9 114.116 281 110.516 282.4C108.816 282.9 105.416 284.1 102.816 284.8C100.216 285.5 95.2159 287.5 91.7159 289.1C84.3159 292.6 79.3159 292.8 74.7159 290L74.9159 290.1Z" fill="#57B9C2"/>
<path d="M189.716 289.2C186.716 288.7 185.816 285.4 185.816 276.6C185.816 268.9 188.916 261.9 194.216 257.2C197.316 254.6 198.716 254 203.116 254C207.216 254 208.616 254.4 209.416 256C211.316 259.7 210.616 262.3 205.716 267.6C200.716 273.3 199.616 276.9 200.116 284.6L200.416 289.3L196.216 289.4C193.916 289.5 190.916 289.4 189.716 289.1V289.2Z" fill="#57B9C2"/>
<path d="M38.7159 235.6C35.5159 231.6 36.0159 225.3 39.3159 224.8C42.6159 224.4 45.1159 228.6 44.7159 233.8C44.3159 238.9 41.9159 239.6 38.7159 235.6Z" fill="#57B9C2"/>
<path d="M26.4159 212.5C25.7159 209.4 27.5159 206.7 30.3159 206.7C32.5159 206.7 32.9159 209.8 31.2159 213.1C29.6159 215.9 27.2159 215.6 26.3159 212.5H26.4159Z" fill="#57B9C2"/>
<path d="M42.5159 198.4C38.9159 194.7 38.3159 186.6 41.6159 186.6C45.5159 186.6 50.0159 195 48.6159 199.5C47.8159 202.2 45.9159 201.8 42.6159 198.4H42.5159Z" fill="#57B9C2"/>
<path d="M269.816 136.4C267.716 135 267.516 133.9 267.516 126.6C267.516 116.3 266.316 114.9 257.616 114.9C251.316 114.9 246.116 112.9 244.916 110.2C243.716 107 244.216 92.2 245.616 90.5C246.416 89.3 249.416 88.7 255.216 88.3C265.916 87.6 266.816 86.7 267.216 76.5C267.516 71.2 268.116 68.3 269.216 67.3C270.116 66.6 274.916 65.8 280.516 65.6C292.716 65.1 293.816 65.8 293.816 75.2C293.816 78.8 294.416 82.9001 295.216 84.4001C296.416 86.7001 297.416 87.1 304.916 87.8C316.216 88.9 317.016 89.9001 317.016 102.4C317.016 114 316.316 114.8 304.816 115.7C299.116 116.1 296.016 116.9 295.216 118C294.416 119.1 293.816 122.9 293.816 127.9C293.816 134.9 293.516 136.2 291.816 137.2C288.416 138.9 272.516 138.6 269.816 136.6V136.4Z" fill="#57B9C2"/>
<path d="M110.716 38.5C108.916 37.7 107.116 36.3 106.816 35.3C105.416 31.7 114.216 30.1 118.516 33.2C121.316 35.2 121.516 37.4 118.816 38.9C116.216 40.3 114.716 40.2 110.716 38.5Z" fill="#57B9C2"/>
<path d="M131.116 26.8C127.816 23.5 129.316 12.6 133.116 12.6C136.616 12.6 137.816 22.5 134.816 26.3C133.016 28.5 132.816 28.5 131.116 26.8Z" fill="#57B9C2"/>
<path d="M98.916 22.5C95.116 19.9 95.916 17.9 100.816 17.9C104.916 17.9 109.216 20.6 109.216 23.2C109.216 24.9 101.516 24.5 98.916 22.6V22.5Z" fill="#57B9C2"/>
<path d="M105.316 10.2C102.116 6.9 102.016 0 105.016 0C109.216 0 112.316 8.79998 109.016 11.5C107.816 12.3 107.016 12 105.316 10.2Z" fill="#57B9C2"/>
<path d="M126.116 109.1C124.216 106.8 125.416 98.1999 128.016 95.5999C131.016 92.5999 133.516 93.8999 133.516 98.2999C133.516 106.1 129.116 112.5 126.116 109.1Z" fill="#C3D1EA"/>
<path d="M103.816 88.4C99.7159 86.1 103.016 82.2 109.016 82.2C110.716 82.2 113.116 82.9 114.416 83.9C116.716 85.5 116.716 85.6999 115.016 87.5999C113.016 89.7999 106.916 90.2 103.816 88.4Z" fill="#C3D1EA"/>
<path d="M76.0159 143.4C74.9159 141.7 79.0159 134.4 81.1159 134.1C83.7159 133.6 84.3159 136.2 82.5159 140.6C80.9159 144.4 77.5159 145.8 76.1159 143.3L76.0159 143.4Z" fill="#A1BDD8"/>
<path d="M105.716 122.1C102.616 117.9 104.316 109.7 108.116 109.7C111.316 109.7 113.416 117.4 111.316 121.1C109.316 124.7 107.716 125 105.716 122.2V122.1Z" fill="#A1BDD8"/>
<path d="M87.116 107.5C83.316 106.6 83.2159 103.7 87.0159 101.8C90.9159 99.7 94.516 99.7 97.116 101.6C99.116 103.1 99.1159 103.2 97.3159 105.2C95.2159 107.5 91.116 108.5 87.116 107.5Z" fill="#B5CAE4"/>
</g>
<defs>
<filter id="filter0_d_1_107" x="0" y="0" width="321.616" height="362.267" filterUnits="userSpaceOnUse" color-interpolation-filters="sRGB">
<feFlood flood-opacity="0" result="BackgroundImageFix"/>
<feColorMatrix in="SourceAlpha" type="matrix" values="0 0 0 0 0 0 0 0 0 0 0 0 0 0 0 0 0 0 127 0" result="hardAlpha"/>
<feOffset dy="4"/>
<feGaussianBlur stdDeviation="2"/>
<feComposite in2="hardAlpha" operator="out"/>
<feColorMatrix type="matrix" values="0 0 0 0 0 0 0 0 0 0 0 0 0 0 0 0 0 0 0.25 0"/>
<feBlend mode="normal" in2="BackgroundImageFix" result="effect1_dropShadow_1_107"/>
<feBlend mode="normal" in="SourceGraphic" in2="effect1_dropShadow_1_107" result="shape"/>
</filter>
</defs>
</svg>
